<svg width="191" height="49" viewBox="0 0 191 49" fill="none" xmlns="http://www.w3.org/2000/svg">
<path d="M3.01595 13.1803V15.9429C3.01595 16.0292 3.01595 16.2019 3.10284 16.2019C3.18973 16.2882 3.27662 16.2882 3.4504 16.3745V16.5472H0.756836V16.3745C0.930614 16.3745 1.0175 16.2882 1.10439 16.2019C1.19128 16.2019 1.19128 16.1155 1.19128 15.9429V8.77741C1.19128 8.69108 1.19128 8.51841 1.10439 8.51841C1.0175 8.43208 0.930614 8.43209 0.756836 8.34575V8.1731H6.05707C6.66529 8.1731 7.18663 8.17309 7.62108 8.25943C8.05552 8.34576 8.31619 8.43209 8.57686 8.69108C8.92441 8.86374 9.18508 9.20906 9.27197 9.55439C9.44575 9.89971 9.53264 10.3314 9.53264 10.6767C9.53264 12.058 8.75064 12.835 7.18663 13.0939L8.83753 15.4249C9.09819 15.8565 9.35886 16.1155 9.44575 16.2019C9.61953 16.2882 9.70641 16.3745 9.96708 16.3745V16.5472H6.92596V16.3745C7.09974 16.3745 7.27352 16.2882 7.27352 16.1155C7.27352 16.0292 7.18663 15.8565 7.01285 15.5975L5.27507 13.0939H3.01595V13.1803ZM3.01595 11.799H5.8833C6.31774 11.799 6.57841 11.799 6.75219 11.799C6.92596 11.799 7.09974 11.7127 7.27352 11.6263C7.62108 11.4537 7.70797 11.1947 7.70797 10.6767C7.70797 10.1587 7.53419 9.89971 7.27352 9.72705C7.09974 9.64071 6.92596 9.55439 6.83907 9.55439C6.6653 9.55439 6.40463 9.55439 5.97018 9.55439H3.10284V11.799H3.01595Z" fill="white"/>
<path d="M16.9183 8C18.3954 8 19.6118 8.43166 20.4807 9.20863C21.4365 10.0719 21.871 11.1079 21.871 12.4029C21.871 13.1798 21.6103 13.9568 21.1758 14.6475C20.307 16.0288 18.9167 16.7194 16.9183 16.7194C15.4412 16.7194 14.3116 16.2878 13.4427 15.5108C13.0083 15.0791 12.6607 14.5611 12.4 13.9568C12.2263 13.4388 12.0525 12.9209 12.0525 12.3165C12.0525 11.4532 12.3132 10.6763 12.7476 9.98561C13.5296 8.69065 14.9198 8.08633 16.9183 8ZM16.9183 9.46763C16.1363 9.46763 15.4412 9.72662 14.9198 10.1583C14.3116 10.7626 13.964 11.4532 13.964 12.4029C13.964 13.3525 14.3116 14.0432 14.9198 14.6475C15.4412 15.1655 16.1363 15.3381 16.9183 15.3381C17.7003 15.3381 18.3954 15.0791 18.9167 14.6475C19.2643 14.3885 19.4381 14.0432 19.6118 13.6115C19.7856 13.2662 19.8725 12.8345 19.8725 12.4892C19.8725 11.5396 19.525 10.7626 18.9167 10.2446C18.3954 9.72661 17.7003 9.46763 16.9183 9.46763Z" fill="white"/>
<path d="M28.0401 14.1299L30.2992 9.20906C30.3861 9.0364 30.473 8.86374 30.473 8.69108C30.473 8.51842 30.2992 8.43209 30.0385 8.34575V8.1731H32.9059V8.34575C32.7321 8.34575 32.5583 8.43208 32.5583 8.51841C32.4714 8.60474 32.3845 8.86374 32.2108 9.20906L29.2565 15.5112C29.1696 15.7702 29.0827 15.9429 29.0827 16.0292C29.0827 16.2019 29.2565 16.3745 29.5172 16.3745V16.5472H26.563V16.3745C26.8236 16.3745 26.9974 16.2019 26.9974 16.0292C26.9974 15.9429 26.9105 15.7702 26.8236 15.5112L23.7825 9.20906C23.6087 8.86374 23.5218 8.60474 23.435 8.51841C23.3481 8.43208 23.2612 8.34575 23.0874 8.34575V8.1731H26.1285V8.34575C25.8679 8.43209 25.6941 8.51842 25.6941 8.69108C25.6941 8.77741 25.781 8.95007 25.8679 9.20906L28.0401 14.1299Z" fill="white"/>
<path d="M8.66391 22.3309L7.62125 24.3165L7.44746 24.2302V24.1439C7.44746 23.9712 7.36058 23.8849 7.09991 23.7122C6.31791 23.1942 5.53591 22.9352 4.49324 22.9352C4.05879 22.9352 3.62435 23.0216 3.36368 23.1079C3.10301 23.1942 2.92924 23.2806 2.75546 23.4532C2.58168 23.6259 2.49479 23.7986 2.49479 23.9712C2.49479 24.3165 2.66856 24.4892 3.10301 24.6619C3.27679 24.7482 3.71123 24.7482 4.40635 24.8345L5.36213 24.9209C5.97035 25.0072 6.4048 25.0935 6.75236 25.1798C7.09991 25.2662 7.44747 25.4388 7.70813 25.6115C7.9688 25.7842 8.22947 26.0432 8.40325 26.3885C8.57703 26.7338 8.66391 27.0791 8.66391 27.4244C8.66391 28.0288 8.49014 28.5468 8.05569 28.9784C7.70813 29.4101 7.1868 29.6691 6.4048 29.928C5.88346 30.1007 5.27524 30.187 4.66702 30.187C3.53746 30.187 2.4079 29.928 1.36523 29.4101C1.10456 29.3237 1.01767 29.2374 0.930783 29.2374C0.843894 29.2374 0.757009 29.3237 0.67012 29.4101L0.496338 29.3237L1.45212 27.2518L1.6259 27.3381V27.4244C1.6259 27.5971 1.71279 27.7698 1.88657 27.9424C2.14724 28.2014 2.58168 28.3741 3.10301 28.5468C3.62434 28.7194 4.23257 28.8057 4.66702 28.8057C5.18835 28.8057 5.70968 28.7194 6.05724 28.5468C6.23102 28.4604 6.40479 28.2878 6.57857 28.1151C6.66546 27.9424 6.75236 27.7698 6.75236 27.5971C6.75236 27.3381 6.57858 27.0791 6.31791 26.9928C6.14413 26.9065 5.70969 26.8201 5.01457 26.7338L4.05879 26.6475C3.45057 26.5611 2.92923 26.5611 2.66856 26.4748C2.4079 26.3885 2.14724 26.3021 1.88657 26.2158C1.53901 26.0432 1.19146 25.7842 1.01768 25.3525C0.843899 25.0072 0.757008 24.6619 0.757008 24.2302C0.757008 23.5396 1.01768 22.9352 1.53901 22.5036C2.14723 21.8993 3.1899 21.554 4.49324 21.554C5.01458 21.554 5.53591 21.6403 5.97035 21.7266C6.4048 21.8129 7.01302 22.0719 7.70813 22.3309C7.9688 22.4173 8.05569 22.5036 8.14258 22.5036C8.22947 22.5036 8.31636 22.4173 8.49014 22.3309H8.66391Z" fill="white"/>
<path d="M18.3953 23.7984V27.4243C18.3953 28.2876 18.2215 28.8919 17.874 29.2372C17.3526 29.8416 16.31 30.1869 14.8328 30.1869C13.8771 30.1869 13.0082 30.0142 12.3999 29.7552C11.9655 29.4962 11.6179 29.2372 11.5311 28.8056C11.3573 28.4603 11.2704 27.9423 11.2704 27.4243V23.7984C11.2704 23.7121 11.2704 23.5394 11.1835 23.5394C11.0966 23.4531 11.0097 23.4531 10.8359 23.3668V23.1941H13.2688V23.3668C13.0951 23.3668 13.0082 23.4531 12.9213 23.5394C12.8344 23.6257 12.8344 23.7121 12.8344 23.7984V27.1653C12.8344 27.5106 12.8344 27.856 12.9213 28.0286C13.0082 28.2013 13.0951 28.3739 13.2688 28.5466C13.6164 28.8056 14.1377 28.9783 14.7459 28.9783C15.3542 28.9783 15.8755 28.8056 16.2231 28.5466C16.3968 28.3739 16.4837 28.2876 16.5706 28.0286C16.6575 27.856 16.6575 27.5106 16.6575 27.1653V23.7984C16.6575 23.7121 16.6575 23.5394 16.5706 23.5394C16.4837 23.4531 16.3968 23.4531 16.2231 23.3668V23.1941H18.5691V23.3668C18.3953 23.3668 18.3084 23.4531 18.2215 23.5394C18.4822 23.5394 18.3953 23.6257 18.3953 23.7984Z" fill="white"/>
<path d="M23.2611 27.2516V29.4962C23.2611 29.5826 23.2611 29.7552 23.348 29.7552C23.4349 29.8416 23.5218 29.8416 23.6956 29.9279V30.1006H21.1758V29.9279C21.3496 29.9279 21.4364 29.8416 21.5233 29.7552C21.6102 29.6689 21.6102 29.5826 21.6102 29.4962V23.7984C21.6102 23.7121 21.6102 23.5394 21.5233 23.5394C21.4364 23.4531 21.3496 23.4531 21.1758 23.3668V23.1941H25.7809C26.3891 23.1941 26.8236 23.1941 27.1711 23.2804C27.5187 23.3668 27.7794 23.4531 28.04 23.6257C28.5614 23.9711 28.822 24.4891 28.822 25.1797C28.822 25.6977 28.6482 26.2157 28.3876 26.4747C28.04 26.82 27.6056 26.9927 26.9105 27.1653L28.2138 28.9783C28.4745 29.3236 28.6482 29.5826 28.822 29.6689C28.9958 29.7552 29.1696 29.8416 29.3434 29.9279V30.1006H26.3891V29.9279C26.5629 29.8416 26.7367 29.7552 26.7367 29.6689C26.7367 29.5826 26.6498 29.4099 26.5629 29.2372L25.1727 27.2516H23.2611ZM23.2611 25.9567H25.7809C26.1285 25.9567 26.476 25.9567 26.6498 25.8704C26.9105 25.784 26.9973 25.525 26.9973 25.1797C26.9973 24.9207 26.9105 24.6617 26.7367 24.5754C26.5629 24.4891 26.2154 24.4027 25.7809 24.4027H23.2611V25.9567Z" fill="white"/>
<path d="M34.47 27.8563L36.1209 24.2305C36.2078 24.0578 36.2947 23.8851 36.2947 23.7988C36.2947 23.6261 36.1209 23.4535 35.8602 23.3671V23.1945H38.5538V23.3671C38.38 23.4535 38.2931 23.4535 38.2062 23.5398C38.1193 23.6261 38.0324 23.7988 37.9456 24.0578L35.5127 29.1513C35.4258 29.324 35.3389 29.4966 35.3389 29.583C35.3389 29.7556 35.5127 29.9283 35.7733 30.0146V30.1873H33.0798V29.9283C33.3404 29.842 33.5142 29.7556 33.5142 29.4966C33.5142 29.4103 33.5142 29.2376 33.3404 29.065L30.9075 23.9715C30.8206 23.7125 30.7338 23.5398 30.6469 23.4535C30.56 23.3671 30.4731 23.2808 30.2993 23.2808V23.1082H33.0798V23.2808C32.8191 23.3672 32.6453 23.5398 32.6453 23.7125C32.6453 23.7988 32.7322 23.9715 32.8191 24.1441L34.47 27.8563Z" fill="white"/>
<path d="M42.6373 27.1653V28.8919H47.0687C47.1556 28.8919 47.3293 28.8919 47.3293 28.8056C47.3293 28.7193 47.4162 28.6329 47.5031 28.4603H47.6769V30.5322H47.5031C47.5031 30.3596 47.4162 30.2732 47.3293 30.1869C47.2425 30.1006 47.1556 30.1006 47.0687 30.1006H40.552V29.9279C40.7258 29.9279 40.8127 29.8416 40.8996 29.7552C40.9864 29.6689 40.9864 29.5826 40.9864 29.4963V23.7984C40.9864 23.7121 40.9864 23.5394 40.8996 23.5394C40.8127 23.4531 40.7258 23.4531 40.552 23.3668V23.1941H46.808C46.9818 23.1941 47.0687 23.1941 47.0687 23.1078C47.1556 23.0214 47.1556 22.9351 47.2425 22.7625H47.4162V24.8344H47.2425C47.2425 24.6617 47.1556 24.5754 47.0687 24.4891C46.9818 24.4027 46.8949 24.4027 46.808 24.4027H42.5505V25.9567H45.1571C45.244 25.9567 45.4178 25.9567 45.4178 25.8704C45.5047 25.784 45.5047 25.6977 45.5916 25.525H45.7653V27.5106H45.5916C45.5916 27.338 45.5047 27.2517 45.4178 27.1653C45.3309 27.079 45.244 27.079 45.1571 27.079H42.6373V27.1653Z" fill="white"/>
<path d="M54.2806 27.0794V29.4966C54.2806 29.583 54.2806 29.7556 54.3675 29.7556C54.4544 29.7556 54.5413 29.842 54.7151 29.9283V30.1009H52.2822V29.9283C52.456 29.9283 52.5429 29.842 52.6297 29.7556C52.7166 29.6693 52.7166 29.583 52.7166 29.4966V27.0794L50.6313 24.2305C50.3706 23.8851 50.1969 23.7125 50.11 23.5398C49.9362 23.4535 49.7624 23.3672 49.5886 23.2808V23.1082H52.7166V23.2808C52.456 23.3672 52.2822 23.4535 52.2822 23.6261C52.2822 23.7125 52.3691 23.8851 52.5429 24.1441L53.5855 25.5254L54.5413 24.1441C54.7151 23.8851 54.802 23.7125 54.802 23.6261C54.802 23.4535 54.6282 23.3672 54.3675 23.2808V23.1082H57.3218V23.2808C57.148 23.2808 56.9742 23.3671 56.8004 23.5398C56.6266 23.6261 56.4529 23.8851 56.2791 24.2305L54.2806 27.0794Z" fill="white"/>
<path d="M5.27515 36.4888V42.8773C5.27515 42.9636 5.27516 43.1363 5.36205 43.1363C5.44894 43.2226 5.53582 43.2226 5.7096 43.309V43.4816H3.01604V43.309C3.18982 43.309 3.27671 43.2226 3.3636 43.1363C3.45049 43.05 3.45049 42.9636 3.45049 42.8773V36.4888H0.843816C0.756927 36.4888 0.583153 36.4888 0.583153 36.5752C0.496264 36.6615 0.49626 36.7478 0.409371 36.9205H0.235596V34.7622H0.322483C0.409372 34.9349 0.40937 35.0212 0.496259 35.1075C0.583148 35.1939 0.670039 35.1939 0.756928 35.1939H7.88182C7.96871 35.1939 8.14249 35.1939 8.14249 35.1075C8.22938 35.0212 8.22938 34.9349 8.31627 34.7622H8.49005V36.9205H8.31627C8.31627 36.7478 8.22938 36.6615 8.14249 36.5752C8.0556 36.4888 7.96871 36.4888 7.88182 36.4888H5.27515Z" fill="white"/>
<path d="M12.7477 40.6331V42.3597H17.179C17.2659 42.3597 17.4397 42.3597 17.4397 42.2734C17.4397 42.187 17.5266 42.1007 17.6135 41.9281H17.7873V44H17.6135C17.6135 43.8273 17.5266 43.741 17.4397 43.6547C17.3528 43.5683 17.2659 43.5683 17.179 43.5683H10.6624V43.3957C10.8361 43.3957 10.923 43.3093 11.0099 43.223C11.0968 43.1367 11.0968 43.0504 11.0968 42.964V37.2662C11.0968 37.1799 11.0968 37.0072 11.0099 37.0072C10.923 36.9209 10.8361 36.9209 10.6624 36.8345V36.6619H16.9184C17.0921 36.6619 17.179 36.6619 17.179 36.5755C17.2659 36.4892 17.2659 36.4029 17.3528 36.2302H17.5266V38.3022H17.3528C17.3528 38.1295 17.2659 38.0432 17.179 37.9568C17.0921 37.8705 17.0053 37.8705 16.9184 37.8705H12.6608V39.4245H15.2675C15.3544 39.4245 15.5281 39.4245 15.5281 39.3381C15.615 39.2518 15.615 39.1655 15.7019 38.9928H15.8757V40.9784H15.7019C15.7019 40.8058 15.615 40.7194 15.5281 40.6331C15.4413 40.5468 15.3544 40.5468 15.2675 40.5468H12.7477V40.6331Z" fill="white"/>
<path d="M26.9106 41.0649L27.9533 42.6188L27.7795 42.7052C27.6926 42.6188 27.6057 42.6188 27.5188 42.6188C27.4319 42.6188 27.2581 42.7052 26.9975 42.8778C26.3893 43.2232 25.9548 43.3958 25.5204 43.5685C25.0859 43.6548 24.5646 43.7411 24.0433 43.7411C22.9137 43.7411 21.9579 43.4821 21.2628 42.9642C20.8284 42.6188 20.5677 42.2735 20.307 41.8419C20.0464 41.3239 19.9595 40.8059 19.9595 40.2016C19.9595 39.4246 20.2201 38.6476 20.6546 38.0433C21.4366 37.0937 22.5661 36.5757 24.0433 36.5757C24.6515 36.5757 25.0859 36.662 25.5204 36.7483C25.9548 36.8347 26.4761 37.0937 26.9975 37.439C27.2581 37.6117 27.4319 37.698 27.5188 37.698C27.6057 37.698 27.6926 37.698 27.7795 37.6117L27.9533 37.698L26.9106 39.2519L26.7368 39.1656C26.7368 39.0793 26.7368 39.0793 26.7368 39.0793V38.9929C26.7368 38.8203 26.4762 38.5613 25.8679 38.3023C25.3466 38.0433 24.8253 37.957 24.3039 37.957C23.5219 37.957 22.9137 38.1296 22.4793 38.5613C21.9579 38.9929 21.6104 39.5973 21.6104 40.2879C21.6104 40.9786 21.871 41.5829 22.4793 42.0145C23.0006 42.4462 23.6088 42.6188 24.3039 42.6188C24.9121 42.6188 25.5204 42.4462 26.0417 42.1872C26.4761 41.9282 26.7368 41.7555 26.7368 41.5829C26.7368 41.5829 26.7368 41.4965 26.7368 41.4102L26.9106 41.0649Z" fill="white"/>
<path d="M35.947 40.5467H32.037V42.964C32.037 43.0503 32.037 43.223 32.1239 43.223C32.2108 43.223 32.2977 43.3093 32.4715 43.3957V43.5683H30.0386V43.3957C30.2124 43.3957 30.2992 43.3093 30.3861 43.223C30.473 43.1367 30.473 43.0503 30.473 42.964V37.2662C30.473 37.1798 30.473 37.0072 30.3861 37.0072C30.2992 36.9209 30.2124 36.9209 30.0386 36.8345V36.6619H32.4715V36.8345C32.2977 36.8345 32.2108 36.9209 32.1239 37.0072C32.037 37.0935 32.037 37.1798 32.037 37.2662V39.2518H35.947V37.2662C35.947 37.1798 35.947 37.0072 35.8601 37.0072C35.7732 37.0072 35.6864 36.9209 35.5126 36.8345V36.6619H37.9455V36.8345C37.7717 36.8345 37.6848 36.9209 37.5979 37.0072C37.511 37.0935 37.511 37.1798 37.511 37.2662V42.964C37.511 43.0503 37.511 43.223 37.5979 43.223C37.6848 43.3093 37.7717 43.3093 37.9455 43.3957V43.5683H35.5126V43.3957C35.6864 43.3957 35.7732 43.3093 35.8601 43.223C35.947 43.1367 35.947 43.0503 35.947 42.964V40.5467Z" fill="white"/>
<path d="M42.4636 38.9929V42.8778C42.4636 42.9642 42.4636 43.1368 42.5505 43.1368C42.6373 43.2232 42.7242 43.2232 42.898 43.3095V43.4821H40.552V43.3095C40.7258 43.3095 40.8127 43.2232 40.8996 43.1368C40.9864 43.0505 40.9864 42.9642 40.9864 42.8778V37.18C40.9864 37.0937 40.9864 36.921 40.8996 36.921C40.8127 36.8347 40.7258 36.8347 40.552 36.7483V36.5757H43.2456V36.7483C43.0718 36.8347 42.9849 36.8347 42.9849 37.0073C42.9849 37.0937 43.0718 37.18 43.1587 37.3527L46.8949 41.0649V37.2663C46.8949 37.18 46.8949 37.0073 46.808 37.0073C46.7211 36.921 46.6342 36.921 46.4605 36.8347V36.662H48.8065V36.8347C48.6327 36.8347 48.5458 36.921 48.4589 37.0073C48.372 37.0937 48.372 37.18 48.372 37.2663V42.9642C48.372 43.0505 48.372 43.2232 48.4589 43.2232C48.5458 43.3095 48.6327 43.3095 48.8065 43.3958V43.5685H46.2867V43.3958C46.4604 43.3958 46.5473 43.3095 46.5473 43.1368C46.5473 43.0505 46.5473 43.0505 46.4605 42.9642C46.3736 42.8778 46.2867 42.7915 46.1129 42.6188L42.4636 38.9929Z" fill="white"/>
<path d="M55.2364 36.4893C56.3659 36.4893 57.2348 36.7483 58.0168 37.3526C58.8857 38.0432 59.3202 38.9929 59.3202 40.2015C59.3202 41.3238 58.8857 42.2734 58.0168 42.8777C57.3217 43.4821 56.3659 43.741 55.2364 43.741C54.1068 43.741 53.2379 43.4821 52.4559 42.8777C51.587 42.1871 51.1526 41.2375 51.1526 40.1152C51.1526 38.9065 51.587 38.0432 52.4559 37.3526C53.2379 36.7483 54.1068 36.4893 55.2364 36.4893ZM55.2364 37.7842C54.5413 37.7842 53.933 38.0432 53.4986 38.4749C53.0641 38.9065 52.8904 39.4245 52.8904 40.1152C52.8904 40.7195 53.0641 41.3238 53.4986 41.7554C53.933 42.1871 54.5413 42.4461 55.2364 42.4461C55.9315 42.4461 56.5397 42.1871 56.9742 41.7554C57.4086 41.3238 57.5824 40.8058 57.5824 40.2015C57.5824 39.5108 57.4086 38.9929 56.9742 38.5612C56.5397 38.0432 55.9315 37.7842 55.2364 37.7842Z" fill="white"/>
<path d="M63.7516 42.2735H67.6616C67.8354 42.2735 67.9223 42.2735 67.9223 42.1872C68.0092 42.1009 68.0092 42.0145 68.096 41.8419H68.2698V43.9138H68.096C68.096 43.7411 68.0092 43.6548 67.9223 43.5685C67.8354 43.4821 67.7485 43.4821 67.6616 43.4821H61.6663V43.3095C61.84 43.3095 61.9269 43.2232 62.0138 43.1368C62.1007 43.0505 62.1007 42.9642 62.1007 42.8778V37.18C62.1007 37.0937 62.1007 36.921 62.0138 36.921C61.9269 36.8347 61.84 36.8347 61.6663 36.7483V36.5757H64.0991V36.7483C63.9254 36.7483 63.8385 36.8347 63.7516 36.921C63.6647 37.0073 63.6647 37.0937 63.6647 37.18V42.2735H63.7516Z" fill="white"/>
<path d="M74.1783 36.4893C75.3078 36.4893 76.1767 36.7483 76.9587 37.3526C77.8276 38.0432 78.262 38.9929 78.262 40.2015C78.262 41.3238 77.8276 42.2734 76.9587 42.8777C76.2636 43.4821 75.3078 43.741 74.1783 43.741C73.0487 43.741 72.1798 43.4821 71.3978 42.8777C70.5289 42.1871 70.0945 41.2375 70.0945 40.1152C70.0945 38.9065 70.5289 38.0432 71.3978 37.3526C72.1798 36.7483 73.0487 36.4893 74.1783 36.4893ZM74.1783 37.7842C73.4831 37.7842 72.8749 38.0432 72.4405 38.4749C72.006 38.9065 71.8323 39.4245 71.8323 40.1152C71.8323 40.7195 72.006 41.3238 72.4405 41.7554C72.8749 42.1871 73.4831 42.4461 74.1783 42.4461C74.8734 42.4461 75.4816 42.1871 75.916 41.7554C76.3505 41.3238 76.5243 40.8058 76.5243 40.2015C76.5243 39.5108 76.3505 38.9929 75.916 38.5612C75.4816 38.0432 74.8734 37.7842 74.1783 37.7842Z" fill="white"/>
<path d="M86.8639 40.8922H85.2999C85.1261 40.8922 85.0392 40.8922 85.0392 40.9786C84.9523 41.0649 84.9523 41.1512 84.8654 41.3239H84.6917V39.4246H84.8654C84.8654 39.5973 84.9523 39.6836 85.0392 39.7699C85.1261 39.8563 85.213 39.8563 85.2999 39.8563H88.6017V40.0289C88.4279 40.0289 88.341 40.1153 88.2541 40.2016C88.1672 40.2879 88.1672 40.3742 88.1672 40.5469V42.0145C88.1672 42.1009 88.1672 42.2735 88.2541 42.2735C88.341 42.3599 88.4279 42.3599 88.6017 42.4462V42.6188C87.2983 43.3958 85.9081 43.7411 84.6048 43.7411C83.4752 43.7411 82.5194 43.4821 81.8243 42.9642C81.4768 42.7052 81.1292 42.2735 80.8685 41.8419C80.6079 41.3239 80.4341 40.8059 80.4341 40.2016C80.4341 39.4246 80.6948 38.6476 81.2161 38.0433C81.9981 37.0937 83.1277 36.5757 84.6917 36.5757C85.3868 36.5757 86.1688 36.7483 87.0377 37.0073C87.3852 37.0937 87.559 37.18 87.6459 37.18C87.7328 37.18 87.8197 37.18 87.9066 37.0937L88.0803 37.18L87.2114 38.9066L87.0377 38.8203C87.0377 38.6476 86.8639 38.475 86.6032 38.3886C85.995 38.1296 85.3868 37.957 84.7785 37.957C83.9965 37.957 83.3883 38.1296 82.9539 38.5613C82.4325 38.9929 82.1719 39.5973 82.1719 40.2879C82.1719 40.9786 82.4325 41.4965 82.867 41.9282C83.3014 42.3599 83.9965 42.5325 84.8654 42.5325C85.6474 42.5325 86.3425 42.3598 86.9508 42.1009V40.8922H86.8639Z" fill="white"/>
<path d="M93.12 37.2662V42.964C93.12 43.0503 93.12 43.223 93.2069 43.223C93.2938 43.3093 93.3807 43.3093 93.5545 43.3957V43.5683H91.1216V43.3957C91.2954 43.3957 91.3822 43.3093 91.4691 43.223C91.556 43.1367 91.556 43.0503 91.556 42.964V37.2662C91.556 37.1798 91.556 37.0072 91.4691 37.0072C91.3822 36.9209 91.2954 36.9209 91.1216 36.8345V36.6619H93.5545V36.8345C93.3807 36.8345 93.2938 36.9209 93.2069 37.0072C93.12 37.0072 93.12 37.0935 93.12 37.2662Z" fill="white"/>
<path d="M98.0726 40.6331V42.3597H102.504C102.591 42.3597 102.765 42.3597 102.765 42.2734C102.765 42.187 102.852 42.1007 102.938 41.9281H103.112V44H102.938C102.938 43.8273 102.852 43.741 102.765 43.6547C102.678 43.5683 102.591 43.5683 102.504 43.5683H95.9873V43.3957C96.1611 43.3957 96.248 43.3093 96.3349 43.223C96.4217 43.1367 96.4217 43.0504 96.4217 42.964V37.2662C96.4217 37.1799 96.4217 37.0072 96.3349 37.0072C96.248 36.9209 96.1611 36.9209 95.9873 36.8345V36.6619H102.243C102.417 36.6619 102.504 36.6619 102.504 36.5755C102.591 36.4892 102.591 36.4029 102.678 36.2302H102.852V38.3022H102.678C102.678 38.1295 102.591 38.0432 102.504 37.9568C102.417 37.8705 102.33 37.8705 102.243 37.8705H97.9857V39.4245H100.592C100.679 39.4245 100.853 39.4245 100.853 39.3381C100.94 39.2518 100.94 39.1655 101.027 38.9928H101.201V40.9784H101.027C101.027 40.8058 100.94 40.7194 100.853 40.6331C100.766 40.5468 100.679 40.5468 100.592 40.5468H98.0726V40.6331Z" fill="white"/>
<path d="M112.149 37.2662L111.28 38.9065L111.106 38.8202C111.106 38.6475 111.019 38.5612 110.932 38.4749C110.671 38.3022 110.324 38.1295 109.889 37.9569C109.455 37.7842 108.934 37.7842 108.499 37.7842C108.065 37.7842 107.717 37.8706 107.457 37.9569C107.022 38.1295 106.761 38.3885 106.761 38.6475C106.761 38.8202 106.848 38.9929 107.109 39.0792C107.283 39.1655 107.717 39.2518 108.325 39.2518L109.281 39.3382C110.15 39.4245 110.758 39.5972 111.28 39.8562C111.54 40.0288 111.714 40.2015 111.888 40.4605C112.062 40.8058 112.235 41.1511 112.235 41.4964C112.235 42.1871 111.888 42.7914 111.28 43.1367C110.671 43.5684 109.803 43.741 108.76 43.741C107.717 43.741 106.675 43.482 105.719 43.0504C105.632 43.0504 105.632 43.0504 105.545 43.0504C105.458 43.0504 105.371 43.1367 105.284 43.2231L105.111 43.1367L105.806 41.4101L105.979 41.4964C105.979 41.4964 105.979 41.4964 105.979 41.5828C105.979 41.6691 105.979 41.7554 106.066 41.8418C106.24 42.0144 106.675 42.1871 107.109 42.2734C107.543 42.3598 108.152 42.4461 108.586 42.4461C109.021 42.4461 109.455 42.3598 109.803 42.2734C110.237 42.1008 110.411 41.9281 110.411 41.5828C110.411 41.3238 110.237 41.1511 109.976 41.0648C109.803 40.9785 109.455 40.9785 108.934 40.8921L107.978 40.8058C107.457 40.8058 107.022 40.7195 106.761 40.6331C106.501 40.5468 106.24 40.4605 106.066 40.3741C105.806 40.2015 105.632 39.9425 105.458 39.6835C105.284 39.4245 105.197 39.0792 105.197 38.7339C105.197 37.9569 105.545 37.4389 106.153 37.0072C106.761 36.6619 107.457 36.4893 108.412 36.4893C108.847 36.4893 109.368 36.5756 109.716 36.6619C110.063 36.7483 110.585 36.9209 111.193 37.1799C111.367 37.2662 111.453 37.2662 111.54 37.2662C111.627 37.2662 111.714 37.1799 111.801 37.0936L112.149 37.2662Z" fill="white"/>
<g clip-path="url(#clip0)">
<path d="M189.3 21.7C189.6 22.2 190 22.7 190.3 23.1C190.4 23.3 190.4 23.4 190.4 23.6C190.4 24 190.2 24.2 190 24.5C189.8 25 189.5 25.4 189.3 25.9C189 26.4 188.8 26.9 188.5 27.3C188.1 27.9 187.8 28.5 187.4 29.2C187.2 29.5 187 29.8 186.8 30.1C186.3 30.9 185.7 31.7 185.2 32.4C184.9 32.8 184.7 33.1 184.4 33.5C183.8 34.3 183.2 35.1 182.6 35.8C182.1 36.5 181.5 37.1 180.9 37.8C180.6 38.2 180.2 38.6 179.9 39C179.5 39.5 179 40 178.6 40.4C178.5 40.5 178.5 40.5 178.4 40.5C177.9 40.8 177.5 41.2 176.9 41.4C176.6 41.5 176.2 41.6 175.9 41.6C175.4 41.7 175 41.7 174.5 41.7C174.2 41.7 173.8 41.7 173.5 41.6C172.7 41.5 172 41.2 171.2 41C170.5 40.8 169.7 40.5 169 40.3C168.3 40.1 167.6 39.9 166.9 39.6H166.8C166.7 39.5 166.6 39.6 166.4 39.7C166.2 39.9 166 40.1 165.8 40.3C165.7 40.4 165.7 40.5 165.7 40.6C165.6 40.9 165.5 41.3 165.5 41.6C165.5 41.7 165.4 41.8 165.4 41.9C165.3 41.8 165.3 41.8 165.2 41.7C164.8 41.2 164.3 41 163.7 40.9C163.6 40.9 163.5 40.9 163.4 41C163.3 41.1 163.4 41.3 163.4 41.4L163.5 41.5C163.6 41.5 163.6 41.5 163.7 41.6C164.2 41.8 164.5 42.1 164.9 42.4C165.1 42.6 165.2 42.8 165.4 42.9C165.7 43.2 165.7 43.5 165.4 43.9C164.4 45.1 163.5 46.3 162.5 47.6C162.3 47.8 162.2 47.9 161.9 47.9C161.3 48 160.8 47.9 160.3 47.5C160 47.2 159.8 46.9 159.7 46.5C159.6 46 159.7 45.5 160 45.1C160.2 44.8 160.4 44.5 160.7 44.2C160.6 44.3 160.5 44.3 160.4 44.4C160.1 44.6 159.9 44.8 159.6 45.1C159.5 45.2 159.3 45.3 159.2 45.4C159 45.5 158.8 45.4 158.7 45.3L158.6 45.2C158.3 45 158.2 44.8 158.3 44.4C158.4 44 158.5 43.6 158.6 43.2C158.7 42.8 158.8 42.5 158.9 42.1C159 41.9 159 41.7 159 41.6C159.1 41.1 159.3 40.6 159.4 40.1C159.5 39.8 159.6 39.4 159.7 39.1C159.1 38.6 158.5 38.1 157.9 37.6C157.8 37.5 157.8 37.5 157.7 37.5C157.5 37.5 157.3 37.5 157 37.4C156.9 37.4 156.9 37.4 156.8 37.4C156.5 37.4 156.3 37.3 156.2 37C156.1 36.6 156 36.3 155.9 35.9C155.9 35.8 155.8 35.7 155.8 35.6C154.8 34.5 153.7 33.5 152.7 32.4C152.6 32.3 152.4 32.1 152.3 32C152.2 31.8 152 31.7 151.8 31.6C151.2 31.3 150.6 31 150 30.7C149.2 30.3 148.5 29.9 147.7 29.4C147 29 146.3 28.5 145.6 28.1C145.2 27.8 144.8 27.5 144.4 27.2C144.1 27 143.8 26.7 143.5 26.5C143.2 26.3 142.8 26.1 142.4 26C142.1 26 141.9 25.9 141.6 26C141.5 26 141.3 26 141.1 26C140.7 26 140.3 26 139.9 26C139.5 26 139.2 26 138.8 26C138.4 26 138 26 137.7 26C137 26 136.4 26 135.7 25.9C135.5 25.9 135.3 25.8 135.1 25.7C135 25.7 135 25.6 135 25.6C134.9 25.5 134.9 25.5 134.8 25.4C134.7 25.4 134.7 25.5 134.6 25.5C134.6 25.5 134.5 25.5 134.4 25.5C134 25.5 133.6 25.4 133.3 25C133.1 24.8 132.9 24.5 133 24.2C133.1 24.4 133.2 24.6 133.3 24.8C133.4 25 133.6 25.1 133.9 25.2C134.1 25.3 134.3 25.4 134.6 25.3C134.6 25 134.6 24.7 134.5 24.3C134.3 23.9 134 23.6 133.6 23.3C133.3 23.1 133.3 23.2 133 23.4C133 23.2 133.1 23.2 133.2 23.1C133.4 23 133.7 22.8 133.9 22.7C134 22.7 134.1 22.6 134.2 22.5C134.2 22.2 134.1 21.9 134.1 21.6C134 20.9 134 20.3 133.9 19.6C133.9 19 133.9 18.5 133.9 17.9C133.9 17.6 133.9 17.3 133.9 17.1C133.9 16.9 134 16.7 134 16.4C134 16.1 134.1 15.9 134.1 15.6C134.1 15.5 134.1 15.4 134 15.3C133.7 14.7 133.5 14.1 133.2 13.5C133.2 13.4 133.1 13.4 133.1 13.3C133.3 13.4 133.6 13.4 133.8 13.5C134 13.6 134.2 13.5 134.4 13.3C134.4 13.3 134.4 13.2 134.4 13.1C134.3 12.9 134.2 12.7 134.1 12.5C134 12.3 133.8 12.1 133.6 11.9C133.8 12 133.7 12 133.7 11.9C133.8 11.7 134 11.7 134.2 11.6C134.2 11.4 134.1 11.4 133.9 11.3C133.8 11.4 133.6 11.6 133.5 11.7C133.4 11.6 133.4 11.6 133.3 11.5C133.2 11.4 133 11.3 132.9 11.2C132.7 11.1 132.6 11.1 132.4 11.2C132.2 11.3 132.1 11.5 132.1 11.7C132.1 11.8 132.1 11.8 132.1 11.9C132 11.6 132 11.4 132 11.2C132 11.1 132.1 11.1 132.1 11.1C132.3 10.9 132.5 10.8 132.8 10.6C132.9 10.6 133 10.5 133.1 10.5C133.2 10.1 133.6 9.90002 133.9 9.60002C134 9.80002 134 9.80002 133.8 9.90002C133.7 10 133.6 10.1 133.4 10.2C133.5 10.3 133.6 10.2 133.6 10.2C133.8 10 134 9.90002 134.3 9.70002C134.4 9.70002 134.4 9.70002 134.5 9.70002C134.4 10 134.1 10.2 133.8 10.5C134 10.6 134 10.6 134.1 10.8C134.2 10.7 134.2 10.7 134.3 10.6C134.7 10.3 135.1 10 135.4 9.70002C135.5 9.60002 135.5 9.60002 135.6 9.60002C135.6 9.60002 135.7 9.60002 135.8 9.60002C135.8 9.80002 135.8 9.80002 135.7 9.90002C135.4 10.1 135.1 10.4 134.9 10.6C134.7 10.7 134.5 10.9 134.3 11.1C134.4 11.2 134.5 11.3 134.7 11.4C134.9 11.3 135.1 11 135.3 10.9C135.5 10.7 135.7 10.5 135.9 10.4C136.1 10 136.4 9.80002 136.6 9.70002C136.4 9.20002 136 9.10002 135.7 8.80002C135.8 8.70002 135.8 8.70002 135.9 8.60002C136 8.70002 136.1 8.70002 136.3 8.90002C136.5 8.70002 136.6 8.60002 136.8 8.40002C136.9 8.40002 137 8.50002 137.1 8.60002C137.2 8.70002 137.4 8.90002 137.5 9.00002C137.6 9.20002 137.7 9.30002 137.8 9.50002C137.9 9.70002 137.9 9.80002 137.9 10C137.9 10 137.9 10.1 137.8 10.2C137.5 10.4 137.2 10.5 136.9 10.7C136.9 10.4 136.7 10.1 136.6 9.90002C136.3 10.2 136 10.5 135.7 10.7C135.4 11 135.1 11.2 134.8 11.5C134.9 11.6 135 11.7 135.1 11.8C135.2 11.9 135.3 12.1 135.3 12.3C135.4 12.7 135.3 13 135.2 13.4C135 13.7 134.7 13.9 134.4 14C134.3 14 134.1 14 134 14C134.2 14.5 134.5 15.1 134.7 15.6C134.7 15.5 134.8 15.4 134.8 15.4C135 14.3 135.4 13.3 135.7 12.2C135.8 11.8 136.1 11.4 136.5 11.2C137.5 10.4 138.7 9.90002 139.8 9.30002C141.2 8.50002 142.6 7.80002 144 7.10002C146.1 6.10002 148.2 5.10002 150.3 4.20002C151.7 3.60002 153.1 3.10002 154.5 2.50002C154.7 2.40002 155 2.30002 155.2 2.20002C155.3 2.20002 155.4 2.10002 155.4 2.00002C155.4 1.80002 155.2 1.80002 155.1 1.70002C154.8 1.70002 154.5 1.70002 154.2 1.90002C154.3 1.70002 154.3 1.50002 154.1 1.40002C154 1.30002 153.9 1.20002 153.8 1.10002C153.9 1.00002 153.8 1.00002 153.6 1.00002C153.3 1.10002 153 1.30002 152.8 1.40002C152.5 1.60002 152.3 2.00002 152.3 2.40002C152.3 2.50002 152.3 2.50002 152.3 2.60002C152.2 2.60002 152.2 2.70002 152.2 2.70002C151.7 2.90002 151.2 3.00002 150.7 3.20002C150.4 3.30002 150.4 3.20002 150.2 3.00002V2.90002C149.8 2.30002 150.2 1.70002 150.7 1.40002C151.1 1.20002 151.6 1.10002 152 1.00002C152.5 1.00002 152.9 0.900021 153.4 1.00002C153.5 1.00002 153.6 1.00002 153.7 0.900021C153.8 0.900021 153.9 0.800021 153.9 0.900021C154.1 1.10002 154.3 1.10002 154.6 1.20002C154.9 1.20002 155.1 1.30002 155.2 1.50002C155.3 1.60002 155.4 1.60002 155.5 1.60002C155.7 1.50002 156 1.40002 156.2 1.40002C156.4 1.30002 156.7 1.20002 156.9 1.20002C157.6 1.00002 158.3 0.800022 159 0.600022C159.3 0.500022 159.7 0.400022 160 0.300022C160.3 0.200022 160.6 0.100022 160.9 0.100022C161.2 2.14987e-05 161.6 0.100022 161.8 0.300022C161.9 0.400022 162 0.600022 162.1 0.800022C162.1 0.900022 162.2 1.00002 162.2 1.20002C162.2 1.30002 162.3 1.40002 162.4 1.50002C162.7 1.70002 163 1.90002 163.4 2.00002C163.4 2.00002 163.5 2.00002 163.5 2.10002C163.4 2.10002 163.3 2.00002 163.1 2.00002C162.6 1.90002 162 1.90002 161.5 2.00002C160.1 2.30002 158.8 2.80002 157.5 3.20002C157.1 3.30002 156.7 3.50002 156.4 3.60002C155.4 3.90002 154.5 4.40002 153.5 4.80002C151.9 5.60002 150.2 6.30002 148.6 7.10002C148.2 7.30002 147.9 7.50002 147.5 7.70002C147.4 7.70002 147.3 7.80002 147.2 7.80002L147.1 7.90002C147 8.00002 146.9 8.10002 146.8 8.20002C144.3 9.50002 141.8 10.7 139.3 12C138.9 12.2 138.4 12.4 138 12.7L137.9 12.8C138.3 13.2 138.8 13.6 139.2 14C139.2 14 139.1 14 139.1 13.9C138.8 13.7 138.5 13.5 138.1 13.2C137.7 13 137.6 13 137.4 13.3C137.3 13.4 137.2 13.6 137.2 13.7C137 14.5 136.8 15.3 136.6 16.1C136.5 16.4 136.4 16.7 136.4 17.1C136.4 17.4 136.3 17.6 136.3 17.9C136.3 18.1 136.4 18.3 136.6 18.4C137.2 18.9 137.9 19.5 138.5 20.1C139.3 20.8 140.2 21.4 141.1 21.8C141.4 22 141.7 22 142 22.1C142.3 22.1 142.6 22 142.9 21.9C143.2 21.7 143.5 21.5 143.8 21.4C144.3 21.1 144.8 20.8 145.3 20.5C145.4 20.4 145.5 20.3 145.6 20.2C145.5 20.4 145.4 20.6 145.4 20.8C145.3 21 145.3 21.2 145.3 21.4C145.2 21.7 145.2 22.1 145.1 22.4C145.1 22.6 145.1 22.9 145.1 23.1C145.1 23.9 145.4 24.7 145.8 25.4C146.5 26.5 147.3 27.3 148.5 27.7C148.8 27.8 149 27.9 149.3 27.9C150 28 150.8 28.1 151.5 27.9C152.1 27.8 152.5 27.4 152.9 27C153 26.9 153.1 26.7 153.2 26.6C153.3 26.4 153.4 26.3 153.5 26.1C153.7 25.9 153.7 25.5 154 25.3C154 25.3 154 25.3 154 25.2C154 25.1 154 25 154 24.9C154.1 24.5 154.1 24.1 154.1 23.7C154.1 23.6 154.1 23.6 154.1 23.5C153.9 22.9 153.7 22.3 153.4 21.7C153.2 21.5 153.1 21.2 153 20.9C152.6 20.3 152.1 19.7 151.5 19.3C151.2 19.1 150.9 18.8 150.6 18.6C150.2 18.3 149.8 18.1 149.3 18C148.9 17.9 148.5 17.9 148.1 18C147.2 18.2 146.5 18.8 146 19.5C145.9 19.6 145.8 19.8 145.7 19.9C145.7 19.7 145.7 19.5 145.7 19.4C145.7 19.2 145.8 19 145.8 18.8C145.9 18.5 146 18.2 146.2 17.9C146.3 17.7 146.5 17.6 146.6 17.5C147.1 17 147.8 16.8 148.5 16.8C148.9 16.8 149.2 16.9 149.6 17C150.6 17.3 151.3 17.8 152.1 18.4C152.4 18.6 152.6 18.9 152.9 19.2C153.3 19.7 153.7 20.2 154.1 20.7C154.5 21.3 154.8 22 155 22.7C155 22.8 155 22.8 155.1 22.9C155.2 22.6 155.3 22 155 21.2C155.1 21.2 155.3 21.3 155.5 21.3C155.7 21.3 155.8 21.1 155.8 20.9C155.8 20.9 155.8 20.9 155.9 20.9C156 21 156.1 21 156.2 20.9C156.3 20.8 156.3 20.7 156.3 20.6C156.2 20.5 156.2 20.3 156.1 20.2C155.7 19.4 155.2 18.7 154.6 18C154 17.4 153.4 16.8 152.6 16.4C152.1 16.1 151.5 15.9 150.9 15.8C150.4 15.7 150 15.8 149.6 16.1C149.9 16.1 150.1 16.1 150.4 16.1C150.8 16.1 151.1 16.2 151.5 16.3C152 16.5 152.5 16.7 152.9 17C153.4 17.4 153.9 17.8 154.3 18.2C154.5 18.4 154.7 18.6 154.9 18.8C154.4 18.9 154.4 18.9 154.3 19.4C154.2 19.2 154 19.1 153.9 18.9C153.5 18.4 153.1 18 152.6 17.7C152 17.2 151.3 16.8 150.6 16.6C150.2 16.5 149.7 16.4 149.3 16.5C149.2 16.5 149.1 16.5 148.9 16.5L149 16.4C149.6 16.1 150.1 15.7 150.7 15.4C151.2 15.1 151.7 14.8 152.2 14.5C152.4 14.4 152.7 14.2 152.9 14.1C153 14 153.1 14 153 13.8C152.9 13.1 152.8 12.4 152.4 11.8C152.1 11.4 151.8 11.1 151.4 10.8C151.2 10.6 150.9 10.4 150.7 10.2C150.9 10.3 151.1 10.4 151.2 10.5C151.8 10.9 152.2 11.4 152.6 11.9C152.7 12.1 152.8 12.3 152.9 12.6C153 12.9 153 13.2 153.1 13.5C153.1 13.6 153.2 13.7 153.2 13.9C153.3 13.8 153.4 13.8 153.5 13.7C154.3 13.2 155.1 12.8 156 12.3C159.2 10.5 162.4 8.80002 165.7 7.00002C165.4 7.00002 165.7 6.80002 166 6.70002C166.1 6.60002 166.2 6.60002 166.2 6.40002C166.4 5.70002 166.5 5.10002 166.4 4.40002C166.4 4.00002 166.2 3.70002 165.9 3.30002C165.8 3.20002 165.7 3.20002 165.6 3.10002C166 3.30002 166.3 3.60002 166.5 3.90002C166.8 4.40002 166.8 4.90002 166.7 5.50002C166.7 5.70002 166.6 6.00002 166.6 6.30002C166.7 6.30002 166.8 6.30002 166.9 6.20002C167.1 6.10002 167.4 6.00002 167.6 5.90002C168.1 5.70002 168.6 5.70002 169.1 5.70002C169.6 5.80002 170 5.90002 170.3 6.00002C170.6 6.10002 171 6.30002 171.3 6.60002C171.6 6.80002 171.8 7.00002 172.1 7.30002C172.3 7.50002 172.4 7.70002 172.6 7.90002C172.7 8.10002 172.9 8.30002 173 8.50002C173.1 8.60002 173.2 8.70002 173.3 8.70002C173.7 8.70002 174.2 8.90002 174.6 9.10002C174.8 9.20002 175.1 9.30002 175.3 9.50002C175.6 9.40002 176 9.30002 176.3 9.10002C176.6 9.00002 177 9.00002 177.3 9.00002C177.6 9.00002 177.7 9.10002 178 9.20002C178.4 9.30002 178.7 9.50002 179.1 9.70002C179.2 9.70002 179.2 9.80002 179.2 9.90002C178.7 9.70002 178.2 9.60002 177.7 9.50002C177.4 9.40002 177.1 9.40002 176.7 9.50002C176.6 9.50002 176.5 9.60002 176.4 9.60002C174.1 11.2 171.7 12.8 169.4 14.4C167.6 15.7 165.7 16.9 163.9 18.2C163.8 18.3 163.7 18.3 163.6 18.4C164 18.7 164.4 18.9 164.8 19.1C164.4 18.9 164 18.6 163.6 18.4C163.5 18.5 163.5 18.5 163.4 18.6C161.5 20.1 159.6 21.6 157.7 23.1C157 23.7 156.3 24.2 155.6 24.8C155.4 25 155.2 25.3 155.1 25.5C155.4 25.5 155.6 25.7 155.8 25.9C156 26.1 156.2 26.3 156.3 26.5C156.4 26.7 156.6 26.8 156.7 27L156.6 26.9C156.3 26.6 155.9 26.4 155.6 26.1C155.5 26 155.3 26 155.1 25.9C155 25.9 154.9 26 154.9 26.1C154.8 26.4 154.7 26.6 154.5 26.9C154.1 27.7 153.8 28.5 153.4 29.3C153.3 29.5 153.3 29.7 153.3 29.9C153.3 30.2 153.3 30.5 153.3 30.8C153.3 31.1 153.5 31.3 153.7 31.5C155.3 32.9 156.8 34.2 158.5 35.5C158.8 35.8 159.2 36 159.6 36.2C159.9 36.4 160.3 36.4 160.6 36.3C160.7 36.3 160.8 36.2 160.9 36C161.2 35.2 161.6 34.5 161.9 33.8C162.1 33.3 162.4 32.7 162.6 32.2C162.8 31.8 162.7 31.5 162.4 31.2C162.2 31 162.1 30.8 161.9 30.6C162.2 30.6 162.4 30.8 162.6 31C162.8 31.1 163 31.3 163 31.6C163.3 31.1 163.5 30.7 163.9 30.4C164.6 29.6 165.4 28.9 166.1 28.1C166.5 27.7 166.9 27.3 167.4 26.8C167.9 26.3 168.4 25.8 168.9 25.4C169.5 24.8 170.1 24.2 170.7 23.6L170.8 23.5C170.7 23.3 170.5 23 170.3 22.8C169.7 22.2 169 21.7 168.3 21.3C167.6 20.9 167 20.5 166.3 20.1C166.2 20 166.1 19.9 166 19.8C166.1 19.8 166.1 19.9 166.2 19.9C167.2 20.5 168.3 21.1 169.3 21.7C169.8 22 170.3 22.4 170.7 22.9C170.8 23 170.9 23 170.9 23.1C171 23 171 23 171.1 23C171.9 22.3 172.6 21.6 173.4 20.9C174.3 20.1 175.2 19.2 176.1 18.4C176.8 17.8 177.5 17.1 178.2 16.5C179.1 15.7 180 14.9 180.9 14.2C181.3 13.8 181.7 13.5 182.2 13.1C182.5 12.8 182.6 12.5 182.6 12.1C182.6 12 182.5 11.8 182.4 11.7C182.3 11.5 182.1 11.4 181.9 11.3C181.3 10.9 180.6 10.6 180 10.3L179.9 10.2H180C180.6 10.5 181.2 10.8 181.8 11.1C182.3 11.3 182.6 11.7 182.9 12.2C183 12.4 183 12.5 183.1 12.7C183.1 12.7 183.1 12.8 183.2 12.9C183.3 12.9 183.4 12.8 183.5 12.8C183.9 12.5 184.3 12.2 184.8 11.9C184.8 11.9 184.8 11.9 184.9 11.9C185 11.8 185.1 11.7 185.3 11.8C185.5 11.9 185.7 12 185.8 12.3C185.8 12.4 185.8 12.5 185.8 12.6C185.5 13.3 185.3 14.1 185 14.8C184.9 15.1 184.7 15.4 184.6 15.7C184.5 15.9 184.4 16.1 184.4 16.3C184.3 16.5 184.5 16.8 184.7 16.8C184.8 16.8 185 16.9 185.1 16.9C185.4 17 185.7 17 185.9 17.3C186.1 17.5 186.3 17.6 186.5 17.7C187.1 18 187.7 18.3 188.3 18.7C188.8 19.1 189.2 19.5 189.5 20C189.7 20.4 189.8 20.8 189.9 21.2C189.4 21.3 189.5 21.5 189.3 21.7C189.4 21.7 189.4 21.7 189.3 21.7C188.8 22.2 188.2 22.5 187.4 22.6C187.2 22.2 186.9 21.9 186.6 21.6C186.6 21.6 186.5 21.6 186.4 21.6C186.3 21.6 186.3 21.7 186.2 21.8C186.3 22.1 186.4 22.3 186.6 22.6C186.3 22.6 186.1 22.5 185.8 22.5C185.6 22.4 185.3 22.3 185.1 22.3C184.5 22.1 184 21.9 183.5 21.6C183.4 21.5 183.3 21.4 183.1 21.4C182.3 20.9 181.6 20.3 181.2 19.5C181.2 19.5 181.2 19.4 181.1 19.4C181.1 19.6 181.2 19.8 181.4 20.1C181.8 20.6 182.2 21 182.6 21.4C183 21.7 183.5 22 184 22.2C184.4 22.3 184.7 22.5 185.1 22.6C185.6 22.8 186.2 22.9 186.8 22.9C187 22.9 187.2 22.9 187.4 22.9C187.7 22.9 188.1 22.9 188.4 22.7H188.5C188.3 23 188.1 23.2 187.8 23.4C187.5 23.6 187.2 23.6 186.8 23.6C187 23.8 187.2 23.9 187.4 23.8C187.6 23.7 187.9 23.6 188.1 23.4C188.4 23.1 188.7 22.8 189 22.5C189.3 22.1 189.4 21.9 189.3 21.7ZM162.3 37.6C162.6 37.7 162.8 37.8 163 37.8C163.7 38 164.5 38.3 165.2 38.5C165.9 38.7 166.7 39 167.4 39.2C168.1 39.4 168.8 39.7 169.6 39.9C170 40 170.5 40.2 170.9 40.3C171.4 40.5 171.9 40.6 172.5 40.8C173.1 41 173.6 41.1 174.2 41.2C175.4 41.3 176.6 41.1 177.8 40.5C178 40.4 178.1 40.3 178.3 40.1C178.9 39.4 179.5 38.7 180 38.1C180.5 37.5 181 36.9 181.5 36.2C182.1 35.5 182.6 34.8 183.1 34.1C183.4 33.7 183.8 33.2 184.1 32.8C185 31.5 185.9 30.1 186.8 28.8C187.1 28.3 187.4 27.9 187.7 27.4C187.9 27 188.1 26.6 188.3 26.2C188.3 26.1 188.4 26 188.4 25.9C188.5 25.7 188.3 25.5 188.1 25.4C188 25.4 187.8 25.4 187.7 25.4C187.3 25.5 186.9 25.6 186.4 25.6C185.8 25.6 185.1 25.5 184.5 25.4C183.8 25.2 183.1 25 182.4 24.6C181.4 24.1 180.5 23.4 179.8 22.5C179.7 22.4 179.7 22.4 179.6 22.3C179.4 22 179.3 21.7 179.2 21.4C179 21 179.1 20.6 179.4 20.3C179.5 20.2 179.6 20.1 179.7 20.1C179.9 20 180 19.9 180 19.6C180 19.2 180 18.8 180.2 18.4C180.3 18.2 180.4 18 180.6 17.8C180.8 17.6 180.8 17.4 180.7 17.1C180.7 17 180.5 16.9 180.4 16.9C180.2 17 180 17.1 179.9 17.2C179.8 17.3 179.7 17.4 179.6 17.5C179.1 17.9 178.7 18.4 178.2 18.8C177.6 19.4 177 19.9 176.4 20.5C174.6 22.2 172.9 23.9 171.1 25.7C170.1 26.7 169 27.8 168.1 28.9C168 29 168 29.1 168 29.1C167.9 29.4 167.9 29.8 168 30.1C168.1 30.4 168.2 30.6 168.4 30.8C168.5 31 168.7 31.1 168.9 31.2C168.9 31 168.9 30.9 168.9 30.7C169 30.2 169.2 29.8 169.6 29.4C169.8 29.3 169.9 29.1 170.2 29.1C170.6 29 171 28.9 171.3 28.8C171.6 28.7 171.8 28.7 172.1 28.7C172.3 29.2 172.4 29.6 172.6 30.1C172.6 29.6 172.5 29.2 172.5 28.7C172.8 28.7 173 28.7 173.2 28.8C173.6 28.9 174 29 174.5 29.1C174.6 29.1 174.8 29.2 174.9 29.2C175.4 29.3 175.9 29.5 176.3 29.8C176.4 29.9 176.5 29.9 176.6 30C177.4 30.6 178 31.4 178.5 32.3C178.6 32.4 178.6 32.5 178.8 32.5C179.1 32.6 179.3 32.7 179.5 32.7C180.1 32.8 180.7 33 181.3 33.1C181.6 33.2 182 33.1 182.2 32.9C182.6 32.5 182.9 32.2 183.3 31.8C183.7 31.4 184 30.9 184.3 30.4C184.5 30.1 184.6 29.8 184.8 29.5C184.8 29.4 184.8 29.3 184.8 29.3C184.7 29.1 184.7 29 184.6 28.9C184.2 28.3 183.7 27.7 183.2 27.2C182.8 26.8 182.3 26.4 181.9 26.1C181.3 25.7 180.7 25.2 180.1 24.9C179.9 24.8 179.6 24.7 179.3 24.6C179.1 24.5 179 24.5 178.9 24.7C178.8 24.9 178.7 25 178.6 25.2C177.7 26.6 176.7 28 175.7 29.5C175.5 29.3 175.3 29.2 175.1 29.2C174.9 29.1 174.7 29 174.4 29C174.2 28.9 173.9 28.8 173.7 28.8C173.5 28.7 173.2 28.7 173 28.7C172.8 28.7 172.5 28.6 172.3 28.6C172.1 28.6 171.8 28.6 171.6 28.6C171.4 28.6 171.1 28.6 170.9 28.7C170.7 28.7 170.4 28.8 170.2 28.9C170.3 28.8 170.3 28.8 170.4 28.7C172.2 27 173.9 25.3 175.7 23.6C176 23.3 176.2 23.2 176.6 23.3C177.2 23.4 177.9 23.6 178.5 23.7C179 23.8 179.4 24 179.8 24.2C180.4 24.5 180.9 24.8 181.5 25.2C182.4 25.8 183.2 26.5 183.9 27.3C184.3 27.7 184.6 28.1 184.9 28.5C185.1 28.7 185.2 28.9 185.2 29.2C185.2 29.5 185.2 29.7 185.1 30C185 30.4 184.9 30.8 184.7 31.2C184.4 31.8 183.9 32.3 183.5 32.8L183.4 32.9C183 33.2 182.6 33.6 182.2 33.9C182.1 34 182 34.1 181.9 34.1C181.7 34.1 181.5 34.1 181.4 34.1C181 34.1 180.6 34 180.2 33.9C179.8 33.8 179.4 33.7 179 33.5C178.9 33.4 178.8 33.4 178.7 33.4C178.7 33.7 178.8 34 178.8 34.2C178.8 34.8 178.8 35.3 178.5 35.9C178.5 36 178.5 36 178.5 36.1C178.5 36.3 178.4 36.6 178.4 36.8C178.3 37.5 178.2 38.2 177.9 38.9C177.8 39.2 177.6 39.5 177.3 39.7C176.9 40 176.5 40.3 176 40.5C175.7 40.6 175.4 40.7 175.1 40.7C174.2 40.8 173.3 40.8 172.5 40.6C172.4 40.6 172.3 40.6 172.2 40.6C171.7 40.4 171.1 40.3 170.6 40C170.2 39.8 169.9 39.7 169.5 39.4C168.9 39 168.5 38.6 168 38.1C167.7 37.8 167.4 37.5 167.2 37C167.1 37.1 167.1 37.3 167.1 37.4C167.1 37.5 167.1 37.5 167 37.6C166.7 37.9 166.4 38.1 166 38C165.6 38 165.2 37.9 164.9 37.8C164.7 37.8 164.4 37.7 164.2 37.4C164.7 37.5 165.1 37.5 165.5 37.6C165.8 37.7 166.1 37.6 166.4 37.5C166.6 37.4 166.7 37.3 166.8 37.1C166.9 36.6 166.8 36.2 166.5 35.9C166.3 35.7 166.1 35.5 165.9 35.3C165.3 34.8 164.7 34.4 163.9 34.3C163.5 34.2 163.3 34.4 163.1 34.7C163 35 162.9 35.3 163 35.7C163.1 36.1 163.2 36.5 163.4 36.9C163.5 37 163.5 37.1 163.6 37.2C163.4 37.2 163.2 37.1 163.1 36.9C162.8 36.6 162.7 36.2 162.6 35.8C162.6 35.6 162.6 35.3 162.7 35.1C162.8 34.7 163.1 34.4 163.3 34.1C163.4 34 163.5 33.8 163.5 33.7C163.4 33.6 163.4 33.6 163.3 33.5L163.2 33.4C163.3 33.2 163.2 32.9 163.4 32.8C163.9 32.3 164.3 31.8 164.8 31.3C165.7 30.4 166.6 29.5 167.5 28.6C168.1 28 168.6 27.4 169.2 26.8C170.2 25.8 171.2 24.8 172.2 23.8C172.4 23.6 172.6 23.4 172.9 23.2C173 23.1 173.2 22.9 173.3 22.8C173.4 22.7 173.4 22.7 173.5 22.6C173.9 22.2 174.3 21.9 174.7 21.5C175.3 21 175.8 20.5 176.3 19.9C177.8 18.5 179.4 17.2 180.9 15.9L181 15.8C181.3 15.9 181.4 16.1 181.4 16.3C181.4 16.5 181.4 16.7 181.5 16.9C181.5 17 181.5 17 181.5 17.1C181.7 17 181.9 16.9 182 16.9C182.2 16.8 182.5 16.7 182.8 16.7C183.2 16.7 183.4 16.5 183.6 16.2C183.8 15.7 184 15.2 184.2 14.7C184.3 14.3 184.4 13.9 184.5 13.6C184.5 13.4 184.5 13.3 184.4 13.1C184.2 13.2 183.9 13.3 183.7 13.4C183 13.8 182.3 14.1 181.6 14.6C181.1 14.9 180.6 15.3 180.2 15.7C179.7 16.1 179.3 16.5 178.8 16.9C178 17.6 177.1 18.3 176.3 19.1C175.1 20.2 173.9 21.4 172.6 22.5C171.7 23.3 170.7 24.1 169.9 25C168 27 166.1 29 164.1 31C163.8 31.4 163.4 31.7 163.2 32.2C163.1 32.4 163 32.6 162.9 32.8C162.6 33.4 162.3 33.9 162 34.5C161.4 35.9 160.8 37.2 160.3 38.7C160.1 39.4 159.8 40.1 159.6 40.8C159.4 41.4 159.2 42 159.1 42.6C159.1 42.7 159 42.8 159 42.8C159 43 158.9 43.2 158.9 43.4C158.8 43.9 158.6 44.4 158.5 44.9C158.5 45.1 158.4 45.3 158.5 45.5C158.6 45.5 158.7 45.4 158.7 45.4C159.2 45 159.7 44.6 160.3 44.2C160.7 43.9 161 43.6 161.4 43.3C161.8 43 162.1 42.6 162.3 42.2C162.5 41.8 162.7 41.4 162.9 41C163.1 40.6 163.3 40.2 163.5 39.8C163.4 39.8 163.4 39.7 163.3 39.7C163 39.6 162.7 39.5 162.3 39.4C162.2 39.4 162.1 39.3 162 39.3C161.8 39.3 161.7 39.2 161.5 39.2C161.4 39.2 161.3 39.1 161.4 39C161.4 38.8 161.4 38.7 161.4 38.5C161.4 38.4 161.4 38.3 161.5 38.3C161.8 38 162.1 37.7 162.4 37.5H162.5C162.8 36.9 162.6 37.2 162.3 37.6ZM149.9 15.8C150.2 15.8 150.4 15.8 150.6 15.8C151 15.9 151.4 15.9 151.7 16.1C152.5 16.4 153.1 16.8 153.7 17.3C154.1 17.7 154.5 18.1 154.9 18.6C155.2 19.1 155.5 19.5 155.8 20C156.1 20.5 156.3 21 156.5 21.5C156.5 21.5 156.5 21.6 156.6 21.6C156.8 21.8 157 22 157.3 21.7C157.4 21.6 157.6 21.5 157.7 21.4C159.9 19.7 162.1 18.1 164.4 16.5C166.9 14.7 169.4 13 171.8 11.1C172.1 10.8 172.5 10.6 172.8 10.2C173 10 173 9.80002 172.9 9.70002C172.8 9.50002 172.7 9.20002 172.6 9.00002C172.4 8.50002 172 8.10002 171.7 7.70002C171.1 6.90002 170.3 6.40002 169.3 6.20002C168.9 6.10002 168.6 6.00002 168.2 6.20002C168 6.30002 167.9 6.30002 167.7 6.40002C164.3 8.20002 160.9 10 157.5 11.8C155 13.1 152.6 14.4 150.1 15.7C150.1 15.7 150 15.7 149.9 15.8ZM141.3 25.5C141.3 25.5 141.4 25.5 141.3 25.5C141.2 25.4 141.2 25.4 141.1 25.4C141 25.3 140.8 25.2 140.7 25.1C139.9 24.5 139.2 23.9 138.4 23.3C138.3 23.3 138.3 23.2 138.2 23.1C137.5 22.4 136.8 21.8 136.2 21.1C135.9 20.8 135.7 20.5 135.4 20.2C135.3 20.1 135.3 20 135.2 20.1C135.1 20.2 135.1 20.3 135.1 20.4C135.2 21.8 135.3 23.1 135.4 24.5C135.4 24.6 135.4 24.8 135.5 24.9C135.6 25.2 135.8 25.3 136.1 25.4C136.3 25.4 136.5 25.4 136.7 25.4C137.1 25.4 137.6 25.4 138 25.4C138.8 25.4 139.6 25.5 140.4 25.5C140.8 25.5 141.1 25.5 141.3 25.5ZM178.7 24.1C178.6 24.1 178.6 24 178.7 24.1C178 23.9 177.3 23.8 176.6 23.6C176.5 23.6 176.4 23.6 176.3 23.7C175.2 24.8 174.2 25.9 173.1 26.9C173 27 173 27.1 172.9 27.2C173 27.3 173.1 27.3 173.1 27.4C173.7 27.8 174.3 28.3 174.9 28.7C175.1 28.9 175.2 28.9 175.4 28.6C176.4 27.2 177.5 25.7 178.5 24.3C178.6 24.2 178.6 24.2 178.7 24.1ZM167.8 35.7C168.1 35.6 168.2 35.5 168.1 35.2L168 35.1C167.9 35 167.9 34.9 168 34.8C168.1 34.6 168.3 34.4 168.4 34.2C168.7 33.8 169 33.4 169.2 33C169.5 32.6 169.4 32.2 169.1 31.9C168.8 31.6 168.4 31.3 168 31C167.6 30.7 167.2 30.4 166.7 30.3C166.5 30.2 166.3 30.2 166.1 30.4C165.4 31.1 164.8 31.9 164.1 32.6C164 32.7 164 32.8 164.1 32.9L164.2 33C164.4 33.1 164.6 33.2 164.8 33.2C165 33.3 165.1 33.3 165.3 33.4C166.1 33.7 166.8 34.2 167.3 34.8C167.5 35 167.7 35.3 167.7 35.7C167.8 35.6 167.8 35.7 167.8 35.7ZM172.1 32.5C172.1 32.6 172.1 32.7 172.1 32.7C172.1 32.9 172.2 33.1 172.2 33.3C172.2 33.5 172.4 33.7 172.6 33.8C172.9 34 173.2 34.1 173.6 34.2C173.8 34.2 173.9 34.2 174.1 34.2C174.3 34.2 174.5 34.1 174.7 34C175.2 33.7 175.5 33.3 175.6 32.8C175.8 31.8 175.5 31.1 174.7 30.5C174.6 30.4 174.5 30.4 174.4 30.5C173.9 30.7 173.5 30.8 173.1 31.2C172.8 31.5 172.6 31.9 172.5 32.3C172.5 32.7 172.6 33.1 172.8 33.5C172.4 33.3 172.3 32.9 172.1 32.5ZM184.6 20.1C184.5 20 184.4 19.9 184.3 19.9C184.2 19.9 184 19.8 183.9 20C183.8 20.1 183.8 20.2 183.8 20.4C184 20.8 184.3 21.1 184.8 21.2C185.2 21.3 185.6 21.3 186 21.2C186 21.3 186.1 21.4 186.2 21.5C186.3 21.3 186.1 21.2 186.1 21C186.1 20.9 186.1 20.8 186.2 20.7C186.3 20.6 186.5 20.6 186.6 20.5C186.7 20.3 186.9 20.2 187 20C187.2 20 187.4 20.1 187.6 20.1C187.8 20.1 188 20.1 188.1 20.1C188.2 20.1 188.3 20 188.3 19.9C187.9 19.8 187.5 19.7 187 19.7C187 19.6 187 19.6 187 19.5C187 19 186.8 18.6 186.5 18.2C186.4 18 186.2 17.9 186 17.9C185.8 17.9 185.6 17.9 185.4 18.1C185 18.4 184.6 18.8 184.4 19.3C184.3 19.5 184.3 19.7 184.5 19.9C184.6 20 184.6 20 184.6 20.1ZM174.1 35.6C174 35.6 173.9 35.6 173.9 35.7C173.8 35.7 173.7 35.8 173.5 35.7C173 35.6 172.5 35.5 172 35.2C171.5 34.9 171.1 34.4 170.9 33.8C170.8 33.6 170.7 33.4 170.4 33.3C170.2 33.3 170.1 33.2 169.9 33.2C169.7 33.2 169.5 33.2 169.3 33.4C169.1 33.5 169 33.7 169.2 33.9C169.4 34.2 169.6 34.5 169.9 34.8C170.3 35.3 170.8 35.7 171.4 36.1C171.9 36.4 172.4 36.6 173 36.8C173.5 37 174 37.1 174.5 37.1C174.8 37.1 175.1 37.1 175.5 37C175.2 37 174.8 36.9 174.5 36.9C174.5 36.8 174.6 36.7 174.6 36.6C174.3 36.3 174.2 36 174.1 35.6ZM176 33.7C175.9 34.1 175.7 34.4 175.6 34.7C175.4 35 175.1 35.2 174.8 35.5C174.9 35.9 175 36.3 175.1 36.7C175.1 36.9 175.2 36.9 175.4 36.9C175.9 36.9 176.3 36.8 176.8 36.6C177 36.5 177.3 36.4 177.4 36.2C177.1 35.2 176.7 34.3 176 33.7ZM159.9 45.9C159.8 46.5 160 47.1 160.5 47.5C160.9 47.8 161.4 48 161.9 47.9C162.3 47.8 162.5 47.5 162.4 47.2C162.4 47.1 162.3 47.1 162.3 47C162.1 46.6 161.8 46.3 161.4 46C161.1 45.8 160.7 45.6 160.3 45.5C160.1 45.5 159.9 45.6 159.9 45.8V45.9ZM181.6 21.6C181.6 21.9 181.7 22.2 181.8 22.5C181.9 22.8 182.1 23 182.4 23.1C182.7 23.3 183 23.4 183.3 23.4C183.6 23.5 183.9 23.4 184.2 23.3C184.4 23.2 184.6 23 184.9 22.9C185 22.8 185.1 22.8 185.1 22.6C185 22.6 184.9 22.5 184.8 22.5C184.5 22.4 184.1 22.3 183.8 22.1C183.5 21.9 183.1 21.7 182.8 21.5C182.7 21.4 182.6 21.4 182.5 21.5C182.4 21.6 182.4 21.7 182.4 21.8C182.4 21.9 182.5 21.9 182.5 22C182.5 22 182.5 22.1 182.6 22.1C182.5 22.1 182.5 22 182.4 22C182.2 21.8 181.9 21.8 181.6 21.6ZM152.1 28.4C152 28.5 151.8 28.5 151.7 28.6C151.2 28.8 150.7 28.7 150.2 28.7C150.1 28.7 150.1 28.7 150 28.6C149.8 28.5 149.7 28.5 149.5 28.4H149.4V28.5L149.5 28.6C149.8 29 150 29.4 150.3 29.7C150.5 29.9 150.6 30.1 150.8 30.3C150.9 30.4 151.1 30.5 151.3 30.4C151.5 30.3 151.5 30.2 151.5 30C151.5 30 151.5 30 151.5 29.9C151.5 29.7 151.6 29.5 151.6 29.3C151.7 29.1 151.9 28.7 152.1 28.4ZM173.9 40.3C174 40.3 174 40.3 174.1 40.3C174.6 40.3 175.1 40.3 175.6 40.1C176.4 39.9 177 39.5 177.6 39C177.9 38.8 178.1 38.5 178.2 38.2C178.3 38 178.3 37.8 178.4 37.7C178.5 37.4 178.5 37.1 178.6 36.7C178.6 36.5 178.6 36.5 178.4 36.5C178.3 36.5 178.2 36.5 178.2 36.7C178.2 36.8 178.1 36.9 178.1 37C178.1 37.2 178.1 37.4 178 37.6C177.9 38 177.7 38.4 177.4 38.7C177.2 39 177 39.1 176.7 39.3C176.3 39.5 175.9 39.7 175.5 39.9C175 40.1 174.4 40.1 173.9 40.3ZM181 18.8C181 18.8 181.1 18.8 181 18.8C181.1 18.7 181.1 18.6 181.1 18.4C181.2 17.9 181.5 17.6 181.9 17.4C182 17.3 182.2 17.3 182.3 17.2C182.8 17.1 183.3 17 183.8 17.1C184.2 17.2 184.5 17.2 184.9 17.3C185 17.3 185.1 17.3 185.1 17.3C185.1 17.2 185 17.2 185 17.2C184.5 17 184.1 16.9 183.6 16.8C182.9 16.7 182.2 16.9 181.6 17.2C181.5 17.2 181.4 17.3 181.3 17.4C181 17.8 181 18.3 181 18.8ZM146.9 27.9C146.7 27.7 146.5 27.5 146.4 27.4C146.2 27.2 146 26.9 146 26.6C145.5 26.6 145.1 26.6 144.6 26.7C144.7 26.8 144.8 26.8 144.8 26.8C145.3 27.1 145.9 27.4 146.4 27.7C146.6 27.8 146.8 27.9 146.9 27.9ZM178.4 32.5C178.3 32.5 178.2 32.5 178.1 32.5C177.8 32.5 177.4 32.4 177.1 32.4C176.7 32.3 176.3 32.3 175.9 32.4C175.8 32.6 175.8 32.6 176 32.7C176.1 32.7 176.2 32.8 176.3 32.8C176.5 32.8 176.7 32.8 176.9 32.8C177.4 32.8 177.9 32.7 178.4 32.5ZM160.7 45.3C161.6 44.2 162.4 43 163.3 41.9C163.1 41.8 163.1 41.9 163 42C162.7 42.4 162.5 42.7 162.2 43C161.7 43.7 161.1 44.4 160.6 45.1C160.6 45.1 160.6 45.1 160.6 45.2C160.6 45.2 160.6 45.2 160.7 45.3ZM189.1 22.5C188.9 22.6 188.9 22.8 188.9 23C189 23.4 189.1 23.8 189 24.3V24.4C189.5 24 189.7 23.1 189.1 22.5ZM174.9 36.5V36.4C174.8 35.8 174.7 35.2 174.6 34.6C174.6 34.4 174.4 34.3 174.3 34.4C174.2 34.4 174.1 34.6 174.2 34.7C174.4 35.4 174.6 35.9 174.9 36.5ZM174.5 9.90002C174.3 9.80002 174.2 9.70002 174 9.60002C173.9 9.60002 173.8 9.50002 173.8 9.50002H173.7C173.6 9.50002 173.5 9.50002 173.5 9.70002C173.5 9.80002 173.5 9.90002 173.5 9.90002C173.6 10.1 173.9 10.3 174.1 10.2C174.2 10.1 174.3 10 174.5 9.90002ZM171.6 32.4C171.1 32.3 170.6 32.3 170.2 32.4C170.1 32.4 170 32.4 169.9 32.5L169.8 32.6C170 32.6 170.1 32.6 170.2 32.6C170.6 32.6 171 32.6 171.4 32.6C171.5 32.5 171.6 32.5 171.6 32.4ZM187.7 25.2C187.7 25.2 187.8 25.2 187.7 25.2C188.4 25 188.7 24.4 188.8 23.7C188.8 23.6 188.8 23.5 188.7 23.5C188.6 23.8 188.6 24.1 188.4 24.4C188.2 24.8 188 25 187.7 25.2ZM183.8 18.9C184 18.6 184.3 18.3 184.6 18.2C184.9 18.1 185.3 18 185.6 17.9C185.5 17.9 185.4 17.9 185.3 17.9C185.1 18 184.8 18 184.6 18.1C184.2 18.2 184 18.4 183.7 18.7C183.8 18.7 183.7 18.8 183.8 18.9ZM151.9 2.40002C151.7 2.30002 151.3 2.30002 151.1 2.30002L151 2.40002C151.3 2.50002 151.6 2.50002 151.9 2.40002ZM137 8.80002C136.9 9.00002 136.7 9.10002 136.6 9.20002C136.6 9.20002 136.7 9.30002 136.7 9.40002C136.9 9.20002 137 9.10002 137.2 9.00002C137.1 8.90002 137.1 8.90002 137 8.80002ZM188.5 19.4C188.3 19.2 188.2 18.9 187.9 18.8C188 19.1 188.3 19.4 188.5 19.4ZM133.6 11C133.5 10.9 133.5 10.9 133.4 10.8C133.3 10.9 133.2 11.1 133.1 11.2C133.3 11.2 133.5 11.1 133.6 11ZM164.4 39.1C164.5 39.1 164.5 39.1 164.6 39.2C164.5 39.1 164.5 39.1 164.4 39.1ZM152.6 31.2C152.6 31.2 152.5 31.2 152.6 31.2C152.6 31.3 152.6 31.3 152.6 31.3C152.6 31.3 152.6 31.3 152.6 31.2Z" fill="white"/>
<path d="M137.5 9.00005C137.4 8.90005 137.2 8.70005 137.1 8.60005C137.1 8.60005 137.1 8.50005 137 8.50005C136.7 8.30005 136.4 8.10005 136.2 8.00005C136.1 7.90005 136 7.90005 135.9 8.00005C135.8 8.10005 135.6 8.20005 135.4 8.40005C135.3 8.40005 135.3 8.50005 135.3 8.60005C135.1 8.60005 135 8.70005 135 8.80005C135 9.00005 134.9 9.00005 134.8 9.10005C134.6 9.30005 134.4 9.50005 134.1 9.70005C134 9.60005 134 9.60005 134 9.50005C134 9.30005 134 9.10005 134.1 8.90005C134.1 8.50005 134.4 8.20005 134.6 8.00005C134.9 7.70005 135.2 7.50005 135.6 7.40005C136 7.20005 136.4 7.10005 136.8 7.00005C137.3 6.90005 137.8 6.80005 138.4 6.80005C138.9 6.80005 139.5 7.00005 140 7.20005C140.4 7.30005 140.7 7.50005 141 7.60005C141 7.60005 141.1 7.60005 141.1 7.70005C141 7.80005 138.5 9.20005 137.9 9.50005C137.8 9.30005 137.6 9.20005 137.5 9.00005Z" fill="white"/>
<path d="M150.6 19.0001C149.2 18.8001 148 19.3001 147.1 20.3001C146.2 21.4001 146 22.6001 146.3 24.0001C145.4 23.1001 145.1 21.2001 146.2 19.9001C147.4 18.4001 149.4 18.3001 150.6 19.0001Z" fill="white"/>
<path d="M149.9 3.09992C149.8 3.09992 149.8 3.19992 149.7 3.19992C146.7 4.39992 143.8 5.69992 140.8 6.89992C140.6 6.99992 140.4 6.99992 140.2 6.99992C140 6.89992 139.9 6.89992 139.6 6.89992C139.7 6.79992 139.7 6.79992 139.8 6.79992C140.6 6.49992 141.3 6.09992 142.1 5.79992C142.8 5.49992 143.5 5.19992 144.3 4.99992C145.6 4.49992 147 3.99992 148.3 3.49992C148.7 3.39992 149.1 3.19992 149.5 3.09992C149.6 3.09992 149.7 3.09992 149.7 2.99992C149.9 2.89992 149.9 2.99992 149.9 3.09992Z" fill="white"/>
<path d="M142.2 16C142.7 16.3 143.1 16.6 143.5 17C143.7 17.2 143.8 17.5 143.7 17.8C143.5 18.4 143.4 18.9 143.2 19.5C143.2 19.4 143.2 19.4 143.2 19.3C143.3 18.8 143.4 18.3 143.5 17.7C143.5 17.4 143.5 17.2 143.3 17C143 16.7 142.7 16.4 142.4 16.2C142.3 16.1 142.3 16.1 142.2 16Z" fill="white"/>
<path d="M168.2 20.6C168.5 20.3 168.8 20.1 169.1 19.8C169.2 19.7 169.2 19.8 169.3 19.9C169 20.2 168.7 20.5 168.3 20.7C168.3 20.7 168.3 20.7 168.2 20.6Z" fill="white"/>
<path d="M168.9 19.7C168.5 20 168.2 20.3 167.9 20.5C167.9 20.5 167.9 20.5 167.9 20.4C168.2 20.2 168.4 19.9 168.7 19.7C168.8 19.6 168.8 19.6 168.9 19.7Z" fill="white"/>
<path d="M136.2 9.40005C135.8 9.20005 135.5 9.00005 135.1 8.80005C135.2 8.80005 135.4 8.80005 135.5 8.80005C135.8 8.90005 136 9.10005 136.2 9.40005Z" fill="white"/>
<path d="M166.1 18C165.8 18.3 165.4 18.5 165.1 18.8C165.1 18.7 165.1 18.6 165.2 18.6C165.4 18.4 165.7 18.2 165.9 18C166 17.9 166 17.8 166.1 18Z" fill="white"/>
<path d="M168.5 19.5C168.2 19.8 167.8 20 167.5 20.3C167.5 20.3 167.5 20.3 167.4 20.3C167.4 20.3 167.4 20.2 167.5 20.2C167.8 20 168 19.7 168.3 19.5C168.4 19.4 168.4 19.3 168.5 19.5Z" fill="white"/>
<path d="M166.5 18.2C166.2 18.5 165.8 18.7 165.5 19C165.5 19 165.5 19 165.4 19C165.5 18.9 165.6 18.8 165.7 18.7C165.9 18.5 166.1 18.4 166.3 18.2C166.4 18.1 166.4 18.1 166.5 18.2Z" fill="white"/>
<path d="M171.7 15.3C171.4 15.5 171.2 15.7 170.9 15.9C170.8 15.9 170.8 15.9 170.7 15.8C171 15.6 171.2 15.4 171.5 15.2C171.6 15.2 171.6 15.2 171.7 15.3Z" fill="white"/>
<path d="M166.8 18.3999C166.5 18.6999 165.9 19.0999 165.8 19.0999C165.8 18.9999 165.9 18.9999 165.9 18.9999C166.2 18.7999 166.4 18.5999 166.7 18.3999C166.7 18.3999 166.8 18.2999 166.8 18.3999Z" fill="white"/>
<path d="M171.2 15.9999C171.4 15.7999 171.7 15.5999 171.9 15.3999C172 15.2999 172 15.3999 172.1 15.3999C171.9 15.6999 171.3 15.9999 171.2 15.9999Z" fill="white"/>
<path d="M172.4 15.7C172.1 15.9 171.9 16.1 171.6 16.3C171.6 16.3 171.6 16.3 171.5 16.3V16.2C171.7 16 171.9 15.8 172.2 15.7C172.3 15.6 172.3 15.6 172.4 15.7Z" fill="white"/>
<path d="M150.5 8.6001C150.3 8.8001 149.5 9.2001 149.4 9.2001C149.6 9.1001 149.8 9.0001 150 8.9001C150.1 8.7001 150.3 8.6001 150.5 8.6001Z" fill="white"/>
<path d="M147.8 8.2001C148.2 8.0001 148.5 7.8001 148.9 7.6001C148.9 7.6001 148.9 7.6001 149 7.7001C148.5 7.9001 148.2 8.1001 147.8 8.2001Z" fill="white"/>
<path d="M173.5 12.3C173.7 12.1 174 12 174.2 11.8C174.2 11.8 174.2 11.8 174.3 11.8C174.2 12 173.7 12.4 173.5 12.3C173.6 12.4 173.6 12.4 173.5 12.3C173.5 12.4 173.5 12.4 173.5 12.3Z" fill="white"/>
<path d="M174.2 12.8C174.6 12.4 174.8 12.3 174.9 12.3C174.9 12.4 174.4 12.7 174.3 12.8C174.3 12.8 174.3 12.8 174.2 12.8Z" fill="white"/>
<path d="M149.1 8.9999C149.5 8.7999 149.8 8.5999 150.2 8.3999C150.1 8.4999 149.3 8.9999 149.1 8.9999Z" fill="white"/>
<path d="M174.6 12.1001C174.2 12.5001 174 12.6001 173.9 12.6001C174 12.5001 174.4 12.1001 174.5 12.1001H174.6Z" fill="white"/>
<path d="M153.2 5.9C153.5 5.8 153.8 5.6 154.2 5.5C153.9 5.7 153.7 5.8 153.4 5.9C153.3 5.9 153.3 5.9 153.2 5.9Z" fill="white"/>
<path d="M176.8 13.4C176.5 13.7 176.3 13.8 176.1 13.8C176.3 13.6 176.5 13.4 176.7 13.3C176.7 13.3 176.8 13.3 176.8 13.4Z" fill="white"/>
<path d="M149.7 9.29995C150.1 8.99995 150.6 8.69995 150.8 8.69995C150.4 8.99995 150 9.19995 149.7 9.29995Z" fill="white"/>
<path d="M176.4 14.0001C176.8 13.6001 177 13.6001 177.1 13.6001C177.1 13.6001 176.6 14.0001 176.4 14.0001C176.5 14.0001 176.5 14.0001 176.4 14.0001Z" fill="white"/>
<path d="M175.7 13.6001C175.9 13.4001 176.2 13.3001 176.4 13.1001H176.5C176.3 13.3001 176.1 13.5001 175.8 13.6001C175.8 13.7001 175.8 13.6001 175.7 13.6001Z" fill="white"/>
<path d="M153.8 6.20005C154 6.00005 154.5 5.80005 154.7 5.80005C154.4 6.00005 154.1 6.10005 153.8 6.20005Z" fill="white"/>
<path d="M154.4 5.6001C154.3 5.7001 153.8 6.0001 153.6 6.0001H153.5C153.8 5.9001 154.1 5.7001 154.4 5.6001Z" fill="white"/>
<path d="M147.5 7.9999C147.8 7.7999 148.2 7.5999 148.6 7.3999C148.5 7.5999 147.9 7.8999 147.5 7.9999Z" fill="white"/>
<path d="M159.2 4.6999C159.4 4.5999 159.6 4.4999 159.9 4.3999C159.7 4.5999 159.5 4.6999 159.2 4.6999Z" fill="white"/>
<path d="M157.4 3.8C157.6 3.7 157.9 3.6 158.1 3.5C158.1 3.5 158.1 3.5 158.1 3.6C157.9 3.6 157.7 3.7 157.4 3.8C157.5 3.8 157.5 3.8 157.4 3.8Z" fill="white"/>
<path d="M159.7 4.39995C159.5 4.49995 159.3 4.59995 159 4.69995C159.2 4.49995 159.4 4.39995 159.7 4.39995C159.6 4.29995 159.6 4.29995 159.7 4.39995Z" fill="white"/>
<path d="M159.4 4.19995C159.2 4.29995 159 4.39995 158.7 4.49995C158.8 4.29995 159.2 4.19995 159.4 4.19995Z" fill="white"/>
<path d="M157.7 3.5C157.5 3.6 157.4 3.6 157.2 3.7C157.3 3.6 157.4 3.5 157.7 3.5Z" fill="white"/>
<path d="M165.4 33.0999C165.3 32.9999 165.2 32.9999 165 32.8999C165.1 32.7999 165.1 32.7999 165.2 32.6999C165.7 31.9999 166.3 31.2999 166.8 30.6999L166.9 30.5999C167 30.4999 167 30.4999 167.1 30.5999C167.2 30.6999 167.2 30.6999 167.2 30.8999C167.2 30.8999 167.2 30.9999 167.1 30.9999C166.7 31.5999 166.1 32.2999 165.4 33.0999C165.5 33.0999 165.5 33.0999 165.4 33.0999Z" fill="white"/>
<path d="M166.4 33.4999C166.3 33.4999 166.3 33.3999 166.2 33.3999C166.2 33.2999 166.3 33.2999 166.3 33.1999C166.7 32.6999 167.1 32.1999 167.5 31.5999C167.6 31.4999 167.6 31.4999 167.7 31.3999C167.7 31.3999 167.8 31.3999 167.9 31.3999C167.9 31.3999 168 31.4999 168 31.5999C168 31.5999 168 31.6999 167.9 31.6999C167.3 32.2999 166.9 32.7999 166.4 33.4999C166.4 33.3999 166.4 33.4999 166.4 33.4999Z" fill="white"/>
</g>
<defs>
<clipPath id="clip0">
<rect width="58.4" height="48.1" fill="white" transform="translate(132)"/>
</clipPath>
</defs>
</svg>
